<?xml version="1.0" encoding="UTF-8" standalone="no"?>
<!-- Created with Inkscape (http://www.inkscape.org/) -->

<svg
   xmlns:dc="http://purl.org/dc/elements/1.1/"
   xmlns:cc="http://creativecommons.org/ns#"
   xmlns:rdf="http://www.w3.org/1999/02/22-rdf-syntax-ns#"
   xmlns:svg="http://www.w3.org/2000/svg"
   xmlns="http://www.w3.org/2000/svg"
   xmlns:sodipodi="http://sodipodi.sourceforge.net/DTD/sodipodi-0.dtd"
   xmlns:inkscape="http://www.inkscape.org/namespaces/inkscape"
   width="127.7573"
   height="96.36586"
   id="svg4856"
   version="1.1"
   inkscape:version="0.48.4 r9939"
   sodipodi:docname="Mini Logo.svg">
  <defs
     id="defs4858" />
  <sodipodi:namedview
     id="base"
     pagecolor="#ffffff"
     bordercolor="#666666"
     borderopacity="1.0"
     inkscape:pageopacity="0.0"
     inkscape:pageshadow="2"
     inkscape:zoom="3.959798"
     inkscape:cx="178.55626"
     inkscape:cy="8.4522862"
     inkscape:document-units="px"
     inkscape:current-layer="layer1"
     showgrid="false"
     fit-margin-top="0"
     fit-margin-left="0"
     fit-margin-right="0"
     fit-margin-bottom="0"
     inkscape:window-width="1920"
     inkscape:window-height="995"
     inkscape:window-x="-8"
     inkscape:window-y="-8"
     inkscape:window-maximized="1">
    <sodipodi:guide
       position="138.62399,-924.61021"
       orientation="0,744.09448"
       id="guide4914" />
    <sodipodi:guide
       position="882.71847,-924.61021"
       orientation="-1052.3622,0"
       id="guide4916" />
    <sodipodi:guide
       position="882.71847,127.75199"
       orientation="0,-744.09448"
       id="guide4918" />
    <sodipodi:guide
       position="138.62399,127.75199"
       orientation="1052.3622,0"
       id="guide4920" />
  </sodipodi:namedview>
  <metadata
     id="metadata4861">
    <rdf:RDF>
      <cc:Work
         rdf:about="">
        <dc:format>image/svg+xml</dc:format>
        <dc:type
           rdf:resource="http://purl.org/dc/dcmitype/StillImage" />
        <dc:title />
      </cc:Work>
    </rdf:RDF>
  </metadata>
  <g
     inkscape:label="Layer 1"
     inkscape:groupmode="layer"
     id="layer1"
     transform="translate(138.62399,-31.38612)">
    <g
       transform="matrix(2.4568712,0,0,2.4568712,-2364.5493,-479.64309)"
       id="open_book"
       style="fill:#bb0000;fill-opacity:1;stroke-width:0.81404346;stroke-miterlimit:4;stroke-dasharray:none">
      <path
         style="fill:#bb0000;fill-opacity:1;fill-rule:evenodd;stroke-width:0.81404346;stroke-miterlimit:4;stroke-dasharray:none"
         inkscape:connector-curvature="0"
         id="body_1_-1-2-6-1-4-2"
         clip-rule="evenodd"
         d="m 956.295,247.223 c -4.688,0 -3.695,-5.09591 -11.938,-5.09591 -8.243,0 -10.554,5.09591 -12.363,5.09591 -1.811,0 -4.121,-5.09591 -12.365,-5.09591 -8.241,0 -7.253,5.09591 -11.938,5.09591 -0.863,0 -1.691,-0.616 -1.691,-1.683 l 0,-30.882 c 0,0 5.032,-6.658 13.629,-6.658 8.6,0 12.434,4.728 12.434,4.728 0,0 3.625,-4.728 12.294,-4.728 10.694,0 13.643,6.82 13.643,6.82 l 0,30.697 c 0,1.066 -0.739,1.706 -1.705,1.706 z m -0.854,-31.55 c 0,0 -2.558,-5.52317 -11.084,-5.52317 -8.882,0 -10.364,5.47217 -12.295,5.47217 -1.932,0 -3.175,-5.47217 -12.434,-5.47217 -7.064,0 -11.084,5.52317 -11.084,5.52317 l 0,28.139 c 0,0.532 0.32,0.853 0.854,0.853 0,0 2.33,-4.69 10.23,-4.69 8.613,0 12.434,4.601 12.434,4.601 0,0 3.697,-4.601 12.295,-4.601 7.746,0 10.232,4.69 10.232,4.69 0.533,0 0.852,-0.321 0.852,-0.853 z"
         sodipodi:nodetypes="sssssscscscsscssscscscscsc" />
    </g>
    <text
       xml:space="preserve"
       style="font-size:40px;font-style:normal;font-weight:normal;line-height:102.99999714%;letter-spacing:0px;word-spacing:0px;fill:#333333;fill-opacity:1;stroke:none;font-family:Sans"
       x="-74.997803"
       y="73.46492"
       id="text2985-4-5-15-2-1-5-4-7-0-0"
       sodipodi:linespacing="103%"><tspan
         sodipodi:role="line"
         x="-74.997803"
         y="73.46492"
         style="font-size:22px;font-style:normal;font-variant:normal;font-weight:normal;font-stretch:normal;text-align:center;line-height:102.99999714%;text-anchor:middle;fill:#333333;fill-opacity:1;font-family:Linux Libertine;-inkscape-font-specification:Linux Libertine"
         id="tspan4195-6-8-7-0">Wikipedia</tspan><tspan
         sodipodi:role="line"
         x="-74.997803"
         y="96.124916"
         style="font-size:22px;font-style:normal;font-variant:normal;font-weight:normal;font-stretch:normal;text-align:center;line-height:102.99999714%;text-anchor:middle;fill:#333333;fill-opacity:1;font-family:Linux Libertine;-inkscape-font-specification:Linux Libertine"
         id="tspan4502-8-6-1">Connection</tspan></text>
  </g>
</svg>
